<?xml version="1.0" encoding="UTF-8"?><svg id="Layer_2" xmlns="http://www.w3.org/2000/svg" viewBox="0 0 1613.43 403.83"><defs><style>.cls-1{fill:#f2c037;}.cls-1,.cls-2{stroke-width:0px;}.cls-2{fill:#002b52;}</style></defs><g id="Camada_1"><path class="cls-2" d="m274.16,113.3c0-49.41,37.36-88.22,86.77-88.22,40.5,0,71.59,22.18,82.2,57.61l-30.85,8.44c-8.44-23.38-27.24-37.36-51.34-37.36-32.78,0-53.75,26.27-53.75,59.54s20.97,59.3,53.75,59.3c24.1,0,42.91-13.74,51.34-37.12l30.85,8.44c-10.61,35.43-41.7,57.61-82.2,57.61-49.41,0-86.77-38.81-86.77-88.22Z"/><path class="cls-2" d="m455.18,163.2c0-23.14,19.77-37.36,45.07-37.36,20.01,0,30.13,7.71,35.92,12.53v-15.67c0-14.95-8.92-24.83-23.62-24.83-13.5,0-23.14,8.19-26.03,18.08l-29.89-5.3c3.86-17.84,23.62-37.36,56.64-37.36s52.79,17.35,52.79,47.24v77.13h-29.89l.72-15.43c-5.79,9.16-18.56,19.28-39.29,19.28-25.79,0-42.42-14.95-42.42-38.33Zm54.72,15.67c15.19,0,26.76-8.92,26.76-18.8,0-9.16-11.81-15.67-26.76-15.67-16.63,0-24.1,8.68-24.1,17.6s7.71,16.87,24.1,16.87Z"/><path class="cls-2" d="m580.76,165.13l28.92-5.06c2.89,13.26,10.36,20.01,24.59,20.01,11.81,0,20.25-5.78,20.25-13.98,0-26.03-69.42-6.75-69.42-55.2,0-20.97,17.84-37.6,48.69-37.6s47.97,13.74,51.34,37.12l-28.68,5.06c-2.17-12.05-9.4-20.73-22.66-20.73-11.81,0-19.52,6.03-19.52,14.46,0,25.07,70.38,6.75,70.38,54.72,0,23.14-20.49,37.6-50.62,37.6s-49.9-10.85-53.27-36.4Z"/><path class="cls-2" d="m698.62,163.2c0-23.14,19.77-37.36,45.07-37.36,20.01,0,30.13,7.71,35.92,12.53v-15.67c0-14.95-8.92-24.83-23.62-24.83-13.5,0-23.14,8.19-26.03,18.08l-29.89-5.3c3.86-17.84,23.62-37.36,56.64-37.36s52.79,17.35,52.79,47.24v77.13h-29.89l.72-15.43c-5.79,9.16-18.56,19.28-39.29,19.28-25.79,0-42.42-14.95-42.42-38.33Zm54.72,15.67c15.19,0,26.76-8.92,26.76-18.8,0-9.16-11.81-15.67-26.76-15.67-16.63,0-24.1,8.68-24.1,17.6s7.71,16.87,24.1,16.87Z"/><path class="cls-2" d="m848.87,29.3h45.8l43.87,130.89,43.63-130.89h45.8v168.73h-30.85l1.2-129.2-42.18,122.69h-35.43l-42.18-122.69,1.2,129.2h-30.85V29.3Z"/><path class="cls-2" d="m1068.69,25.69c11.33,0,19.28,7.47,19.28,18.08s-7.95,18.32-19.28,18.32-19.52-7.95-19.52-18.32,8.19-18.08,19.52-18.08Zm-14.94,51.82h29.89v120.52h-29.89v-120.52Z"/><path class="cls-2" d="m1106.53,77.51h29.89l-.48,22.66c5.54-12.05,19.76-26.27,38.57-26.27,28.69,0,43.87,18.56,43.87,52.07v72.07h-29.89v-68.46c0-20.25-9.88-30.13-24.58-30.13-16.63,0-27.48,14.46-27.48,34.23v64.36h-29.89v-120.52Z"/><path class="cls-2" d="m1234.28,137.05c0-36.64,25.79-64.36,60.98-64.36s58.09,25.31,58.09,60.5c0,4.82-.48,8.44-.97,10.85h-89.42c.96,18.32,13.74,33.02,32.54,33.02,15.91,0,25.07-10.61,27.96-20.25l28.2,5.79c-5.79,20.25-23.62,38.33-56.4,38.33-37.84,0-60.98-27.48-60.98-63.88Zm90.15-12.05c0-16.39-12.05-29.17-29.65-29.17s-30.37,13.26-31.09,29.41l60.74-.24Z"/><path class="cls-2" d="m1385.41,25.69c11.33,0,19.28,7.47,19.28,18.08s-7.95,18.32-19.28,18.32-19.52-7.95-19.52-18.32,8.19-18.08,19.52-18.08Zm-14.94,51.82h29.89v120.52h-29.89v-120.52Z"/><path class="cls-2" d="m1423.25,77.51h29.89l-1.93,31.09h.96c3.86-18.56,15.43-33.02,33.51-33.02,5.54,0,8.92.48,11.57.97v29.41c-1.45-.24-5.54-.48-10.12-.48-18.32,0-33.99,10.36-33.99,44.11v48.45h-29.89v-120.52Z"/><path class="cls-2" d="m1502.55,159.7c0-23.14,19.76-37.36,45.08-37.36,20.01,0,30.13,7.71,35.92,12.53v-15.67c0-14.95-8.92-24.83-23.62-24.83-13.5,0-23.14,8.19-26.03,18.08l-29.89-5.3c3.86-17.84,23.62-37.36,56.64-37.36s52.79,17.35,52.79,47.24v77.13h-29.89l.72-15.43c-5.78,9.16-18.56,19.28-39.29,19.28-25.79,0-42.42-14.95-42.42-38.33Zm54.72,15.67c15.19,0,26.75-8.92,26.75-18.8,0-9.16-11.81-15.67-26.75-15.67-16.63,0-24.1,8.68-24.1,17.6s7.71,16.87,24.1,16.87Z"/><path class="cls-1" d="m212.72,221.25H0V26.96h37.23C46.7,17.13,68.64,0,106.36,0s60.33,17.19,70.06,26.96h36.3v194.29Zm-181.1-29.21l147.36.47.52-135.67-22.35-.07-1.9-2.18c-5.32-6.11-20.78-20.33-49.35-20.42-28.45-.09-43.46,13.96-48.6,20.01l-1.92,2.26-23.25-.07-.52,135.67Z"/><polygon class="cls-2" points="274.98 271.54 274.97 403.83 334.53 403.83 334.53 384.08 294.53 384.08 294.54 291.2 386.96 291.2 386.96 375.9 353.97 342.72 340.08 356.69 386.95 403.83 386.96 403.83 386.96 403.83 406.51 403.83 406.51 271.54 274.98 271.54"/><path class="cls-2" d="m550.54,337.68c0-31-23.6-55.34-54.57-55.34s-54.57,24.34-54.57,55.34,23.45,55.33,54.57,55.33c10.68,0,20.45-2.87,28.72-7.86l15.93,16.03.09-.09.09.09,13.11-13.18-15.28-15.37c7.51-9.43,11.91-21.52,11.91-34.95m-39.39,33.87c-4.36,2.27-9.47,3.48-15.18,3.48-20.6,0-33.98-16.48-33.98-37.34s13.38-37.34,33.98-37.34,33.98,16.63,33.98,37.34c0,7.76-1.92,14.89-5.31,20.88l-15.56-15.65-13.11,13.18.69.7-.09.09,14.58,14.67Z"/><path class="cls-2" d="m609.17,355.68c0,12.25-6.92,21.47-17.29,21.47-9.17,0-13.83-6.2-13.83-18.9v-42.94h-18.64v45.21c0,21.02,7.97,32.66,25.86,32.66,11.88,0,20.75-8.92,24.2-16.48l-.3,14.21h18.64v-75.59h-18.64v40.37Z"/><rect class="cls-2" x="640.59" y="315.31" width="18.64" height="75.59"/><rect class="cls-2" x="640.59" y="284.84" width="18.64" height="18.75"/><path class="cls-2" d="m714.4,313.04c-11.72,0-20.6,8.92-24.05,16.48l.3-14.21h-18.64v75.6h18.64v-40.37c0-12.4,6.76-21.47,17.14-21.47,9.17,0,15.18,6.2,15.18,18.9v42.94h18.8v-45.21c0-21.02-9.47-32.66-27.36-32.66"/><path class="cls-2" d="m771.43,293.23h-18.49l-.15,78.92c0,12.1,6.47,18.75,18.64,18.75h20.6v-16.33h-15.33c-3.46,0-5.26-1.81-5.26-5.14v-38.55h20.6v-15.57h-20.6v-22.07Z"/><path class="cls-2" d="m834.42,312.89c-23.3,0-38.79,17.84-38.79,40.22s15.48,40.22,38.79,40.22,38.94-17.99,38.94-40.22-15.48-40.22-38.94-40.22m0,63.5c-10.97,0-19.84-8.17-19.84-23.29s8.87-23.43,19.84-23.43,19.99,8.31,19.99,23.43-8.87,23.29-19.99,23.29"/><path class="cls-2" d="m913.06,285.07l-40.74,105.83h20.9l9.62-27.06h43.75l9.77,27.06h20.89l-40.89-105.83h-23.3Zm-4.66,63.2l16.23-45.36,16.39,45.36h-32.62Z"/><path class="cls-2" d="m1024.61,313.04c-11.73,0-20.6,8.92-24.05,16.48l.3-14.21h-18.64v75.6h18.64v-40.37c0-12.4,6.77-21.47,17.14-21.47,9.17,0,15.18,6.2,15.18,18.9v42.94h18.79v-45.21c0-21.02-9.47-32.66-27.36-32.66"/><path class="cls-2" d="m1120.08,328.16c-2.85-6.5-11.57-15.12-24.65-15.12-20.9,0-35.03,18.6-35.03,40.22s14.13,39.91,35.03,39.91c12.93,0,21.8-8.92,24.96-15.27l-.3,13h18.64v-105.83h-18.64v43.09Zm-19.99,48.68c-11.12,0-20.45-9.83-20.45-23.59s9.32-23.89,20.45-23.89,20.6,10.13,20.6,23.89-9.62,23.74-20.6,23.59"/><path class="cls-2" d="m1184.43,312.89c-20.6,0-32.92,12.25-35.33,23.43l18.64,3.33c1.8-6.2,7.82-11.34,16.24-11.34,9.17,0,14.73,6.2,14.73,15.57v9.83c-3.61-3.02-9.92-7.86-22.4-7.86-15.79,0-28.11,8.92-28.11,23.43s10.37,24.04,26.46,24.04c12.93,0,20.9-6.35,24.5-12.1l-.45,9.68h18.64v-48.38c0-18.75-12.48-29.63-32.92-29.63m-2.11,66.22c-10.22,0-15.03-5.14-15.03-10.58s4.66-11.04,15.03-11.04c9.32,0,16.69,4.08,16.69,9.83,0,6.2-7.21,11.79-16.69,11.79"/><path class="cls-2" d="m1271.18,314.1c-10.52,0-20.14,7.56-23.9,19.81h-.45l1.05-18.6h-18.64v75.59h18.64v-31.6c0-21.32,11.13-27.37,21.95-27.37,3.31,0,7.52.3,8.57.3v-17.54c-1.66-.3-3.76-.61-7.22-.61"/></g></svg>