<svg xmlns="http://www.w3.org/2000/svg" xmlns:xlink="http://www.w3.org/1999/xlink" viewBox="0 0 248.62 92.96"><defs><linearGradient id="beba7ba3-4b08-4011-8b20-cdbb429fba9e" x1="9.71" y1="38.87" x2="44.15" y2="38.87" gradientUnits="userSpaceOnUse"><stop offset="0" stop-color="#186531"/><stop offset="1" stop-color="#009640"/></linearGradient><linearGradient id="f20595db-3e9a-4057-aa0c-34ef6c6f4567" x1="44.82" y1="38.94" x2="67.46" y2="38.94" gradientUnits="userSpaceOnUse"><stop offset="0" stop-color="#009640"/><stop offset="1" stop-color="#186531"/></linearGradient></defs><title>dfimoveis-logo</title><g id="a5ca1ebe-3610-4aee-b299-9623cc30862d" data-name="Layer 2"><g id="aaad97a5-e925-4270-bee1-2745de05bc19" data-name="Camada 1"><path d="M221.09,25.57a4.4,4.4,0,1,0,0-8.8,4.54,4.54,0,0,0-4.7,4.37A4.58,4.58,0,0,0,221.09,25.57Z" fill="#163767"/><path d="M224.11,54.64a3.11,3.11,0,0,0,.76-2V33.56a3.57,3.57,0,0,0-3.78-3.34,3.68,3.68,0,0,0-3.78,3.34V52.63a3.3,3.3,0,0,0,1.27,2.44,5.7,5.7,0,0,1,5.53-.43Z" fill="#163767"/><path d="M233.42,55.62a11.72,11.72,0,0,0,1.2.31,1.89,1.89,0,0,1,1.93-1.74,2,2,0,0,1,1.47.64,3.15,3.15,0,0,1,2-.71,3.52,3.52,0,0,1,2.78,1.06,3.45,3.45,0,0,1,2.46-1.08h.17a6.78,6.78,0,0,0,3.19-5.75c0-1.62-.76-5.56-6.86-7.56l-3.84-1.29c-1.51-.49-2.16-1-2.16-1.79,0-1,1.14-1.51,2.76-1.51a4.87,4.87,0,0,1,3,1.14c1.57,1.18,3.13,1.56,4.81.59,1.13-.65,1.57-2.21.65-3.84-1.73-3-5.46-4.15-9.08-4.15-5.29,0-9.77,3.45-9.77,7.18,0,2.32-.05,5.89,7.51,8.42l2.86,1c1.83.59,2.48,1,2.48,2.05,0,1.3-1.56,1.57-3.24,1.57A6.37,6.37,0,0,1,233,48a3.4,3.4,0,0,0-4-.91,3,3,0,0,0-1.35,3.78,6.76,6.76,0,0,0,2.66,3.32A5,5,0,0,1,233.42,55.62Z" fill="#163767"/><path d="M99.67,80.33l-34.47-23A33.18,33.18,0,1,1,66,56.11l34.5,23,.19-.27a16.31,16.31,0,0,0,2-5.18L79.79,58.58a2.14,2.14,0,0,0-1.56-.31L74.4,59l-2.11-1.41a37.32,37.32,0,0,0,4.48-26.42A38.76,38.76,0,1,0,46.32,76.78,37.32,37.32,0,0,0,69,62.54l2.1,1.4.76,3.84a2.12,2.12,0,0,0,.88,1.32L95.41,84.31A19.54,19.54,0,0,0,99.67,80.33Z" fill="#163767"/><path d="M114.71,81.51l-10.64-7A17.87,17.87,0,0,1,102,79.61l-.22.32,12.43,8.28,1.42-2.13A3.3,3.3,0,0,0,114.71,81.51Z" fill="#163767"/><path d="M96.75,85.21l10.71,7.2a3.3,3.3,0,0,0,4.57-.92l1.35-2-12.46-8.3A21,21,0,0,1,96.75,85.21Z" fill="#163767"/><path d="M126.31,78.17h3.32A2.53,2.53,0,0,1,132.41,81a2.33,2.33,0,0,1-1.58,2.26v0a2.46,2.46,0,0,1,1.93,2.67c0,2.2-1.25,3.09-3.51,3.09h-2.94Zm1.34,4.68h1.53A1.65,1.65,0,0,0,131,81c0-1.12-.56-1.77-1.86-1.77h-1.5Zm0,5.06h1.82a1.77,1.77,0,0,0,1.89-2,1.9,1.9,0,0,0-2.12-2.06h-1.59Z" fill="#186531"/><path d="M139.87,89h-1.21v-1h0a2.16,2.16,0,0,1-2,1.16c-2.13,0-2.13-1.62-2.13-2.57V80.87h1.27v5.61c0,.63.05,1.64,1.2,1.64a1.57,1.57,0,0,0,1.61-1.64V80.87h1.27Z" fill="#186531"/><path d="M145.4,83.25c0-1-.27-1.59-1.19-1.59a1.17,1.17,0,0,0-1.32,1.25c0,1,1,1.13,2,1.47s2,.68,2,2.29a2.37,2.37,0,0,1-2.62,2.54,2.49,2.49,0,0,1-2.79-2.88h1.27c0,1,.28,1.88,1.52,1.88a1.27,1.27,0,0,0,1.35-1.35c0-1.09-1-1.31-2-1.65s-2-.62-2-2.3c0-1.52,1.18-2.25,2.6-2.25,2.36,0,2.45,1.64,2.47,2.59Z" fill="#186531"/><path d="M152.33,83.35c0-.79-.31-1.69-1.28-1.69-.79,0-1.6.4-1.6,3.37,0,1.06,0,3.18,1.55,3.18,1.09,0,1.33-1.15,1.33-2h1.28c0,1.29-.64,3-2.67,3s-2.82-1.38-2.82-4.17c0-2,.39-4.38,2.89-4.38a2.45,2.45,0,0,1,2.6,2.69Z" fill="#186531"/><path d="M157.84,80.66c2.35,0,2.92,2,2.92,4.28s-.59,4.27-2.92,4.27-2.93-2-2.93-4.27S155.5,80.66,157.84,80.66Zm1.59,4.28c0-1.76-.26-3.28-1.62-3.28s-1.57,1.52-1.57,3.28.26,3.27,1.57,3.27S159.43,86.7,159.43,84.94Z" fill="#186531"/><path d="M167.77,89h-1.21v-1h0a2.16,2.16,0,0,1-2,1.16c-2.14,0-2.14-1.62-2.14-2.57V80.87h1.28v5.61c0,.63,0,1.64,1.2,1.64a1.56,1.56,0,0,0,1.6-1.64V80.87h1.28Z" fill="#186531"/><path d="M170.1,87.39h1.4v1.32c0,1.16-.09,2.19-1.4,2.54v-.72a1.06,1.06,0,0,0,.67-1.16V89h-.67Z" fill="#186531"/><path d="M178.9,78.17h1.79L183.6,89h-1.39l-.78-3H178l-.81,3h-1.39Zm-.65,6.77h2.91l-1.38-5.23h0Z" fill="#186531"/><path d="M191.37,85.29c-.12,2-.93,3.92-3.3,3.92-3.07,0-3.48-2.89-3.48-5.62s.5-5.63,3.48-5.63c2.22,0,3.15,1.25,3.2,3.37h-1.39c0-1.23-.42-2.28-1.81-2.28-1.84,0-2.09,2-2.09,4.54s.25,4.53,2.09,4.53c1.63,0,1.86-1.51,1.9-2.83Z" fill="#186531"/><path d="M199.37,89H198V83.79h-3.72V89H193V78.17h1.33V82.6H198V78.17h1.33Z" fill="#186531"/><path d="M208.33,83.59c0,2.73-.5,5.62-3.49,5.62s-3.48-2.89-3.48-5.62.5-5.63,3.48-5.63S208.33,80.86,208.33,83.59Zm-5.58,0c0,2.5.25,4.53,2.09,4.53s2.1-2,2.1-4.53-.25-4.54-2.1-4.54S202.75,81.09,202.75,83.59Z" fill="#186531"/><path d="M210.2,78.17h1.33v7.62c0,1.59.52,2.33,1.84,2.33s1.85-.82,1.85-2.33V78.17h1.33v7.62c0,2.08-1.06,3.42-3.18,3.42S210.2,88,210.2,85.79Z" fill="#186531"/><path d="M223,78.17h1.39l-.24,8h-.91Zm0,9.38h1.39V89H223Z" fill="#186531"/><path d="M13.31,59.27c-1.65-.33-2.63-2.08-2.8-3.89a184,184,0,0,1-.13-32.95c.21-1.9,1.11-3.61,2.74-3.94a84,84,0,0,1,11.07-1.33c11.61-.86,20,8.23,20,22S35.83,61.42,24.36,60.59A86.89,86.89,0,0,1,13.31,59.27Zm3.31-6.52c2.13.24,4.49.42,7,.56,6.68.42,10.44-6.15,10.42-14.12S30.23,24.33,23.5,24.73c-2.51.12-4.88.3-7,.52A167.15,167.15,0,0,0,16.62,52.75Z" fill="url(#beba7ba3-4b08-4011-8b20-cdbb429fba9e)"/><path d="M65,20.29c1.34.41,2.35,2.21,2.46,4,.1,1.65-.63,2.9-1.82,2.67a78.61,78.61,0,0,0-11.36-1.69c.21,3.17.34,6.55.39,10,3.43.08,6.5.17,9,.29,1.45.08,2.42,1.72,2.41,3.66S65,42.84,63.59,43c-2.48.2-5.55.37-9,.5-.12,4.59-.38,9-.8,12.91-.22,2-2.33,3.79-4.73,4s-4.34-1.21-4.27-3.25c.51-10.57.53-25.6.06-36.52a2.92,2.92,0,0,1,3.45-3.18A83.29,83.29,0,0,1,65,20.29Z" fill="url(#f20595db-3e9a-4057-aa0c-34ef6c6f4567)"/><path d="M86.75,16.77a4.4,4.4,0,1,1,0,8.8,4.58,4.58,0,0,1-4.7-4.43A4.54,4.54,0,0,1,86.75,16.77Zm3.78,35.86A3.58,3.58,0,0,1,86.75,56,3.68,3.68,0,0,1,83,52.63V33.56a3.68,3.68,0,0,1,3.78-3.34,3.57,3.57,0,0,1,3.78,3.34Z" fill="#163767"/><path d="M132.84,52.63A3.58,3.58,0,0,1,129.06,56a3.69,3.69,0,0,1-3.78-3.35V42.26c0-3.3-2-5-4.21-5-2.38,0-4.27,1.46-4.27,5.13V52.63A3.58,3.58,0,0,1,113,56a3.69,3.69,0,0,1-3.78-3.35V42.1c0-3.19-2-4.86-4.16-4.86s-4.37,1.29-4.37,5.13V52.63A3.58,3.58,0,0,1,96.93,56a3.68,3.68,0,0,1-3.78-3.35V33.56a3.68,3.68,0,0,1,3.78-3.34,3.57,3.57,0,0,1,3.78,3.34v.6A7.21,7.21,0,0,1,107.3,30c4,0,6.64,1.3,8.31,4.75A8.15,8.15,0,0,1,123,30c6,0,9.83,3.83,9.88,11.44Z" fill="#163767"/><path d="M148.28,30c-7.34,0-13.23,5.08-13.23,13s5.89,13.17,13.23,13.17S161.57,51,161.57,43,155.63,30,148.28,30Zm0,18.17A5,5,0,0,1,143.34,43a5,5,0,1,1,9.95,0A5,5,0,0,1,148.29,48.17Z" fill="#163767"/><path d="M179.44,52.79c-.76,2-2.1,3.19-4.16,3.19H175a4.58,4.58,0,0,1-4.32-3.19L163,34.86a3.51,3.51,0,0,1,2.22-4.48,3.7,3.7,0,0,1,4.7,2.16l5.13,13.61,5.13-13.61c.59-1.68,2.32-2.76,4.7-2.16a3.52,3.52,0,0,1,2.21,4.48Z" fill="#163767"/><path d="M210.64,53.92A15.83,15.83,0,0,1,202,56.19,12.8,12.8,0,0,1,188.77,43c0-7.94,5.94-13,13.18-13s12.91,5.29,12.91,13.23a2.34,2.34,0,0,1-2.33,2.32H196.28c.37,2.92,3.56,4.16,6.21,4.16a6.76,6.76,0,0,0,4.37-1.19,3.54,3.54,0,0,1,4.76.38A3.27,3.27,0,0,1,210.64,53.92ZM207.3,40.86a4.91,4.91,0,0,0-5.3-4.59,5.27,5.27,0,0,0-5.61,4.59Z" fill="#163767"/><path d="M214.92,60.53a1.51,1.51,0,1,1-1.56,1.5A1.52,1.52,0,0,1,214.92,60.53Z" fill="#186531"/><path d="M221.74,61.11a2.65,2.65,0,0,0,1.25-.33,1.42,1.42,0,0,1,1.64.09,1.25,1.25,0,0,1-.16,1.85,4.71,4.71,0,0,1-2.73.83,4.42,4.42,0,0,1-4.63-4.36v0a4.42,4.42,0,0,1,4.63-4.36,4.71,4.71,0,0,1,2.73.83,1.25,1.25,0,0,1,.16,1.85,1.42,1.42,0,0,1-1.64.09,2.65,2.65,0,0,0-1.25-.33,2,2,0,0,0-2.06,1.92v0A2,2,0,0,0,221.74,61.11Z" fill="#186531"/><path d="M225.25,59.14a4.44,4.44,0,0,1,8.87,0,4.44,4.44,0,0,1-8.87,0Zm6.34,0a1.91,1.91,0,1,0-3.81,0,1.91,1.91,0,1,0,3.81,0Z" fill="#186531"/><path d="M248.56,62.36a1.19,1.19,0,0,1-1.26,1.12A1.24,1.24,0,0,1,246,62.36V58.89a1.48,1.48,0,0,0-1.41-1.68c-.79,0-1.42.48-1.42,1.71v3.44a1.2,1.2,0,0,1-1.27,1.12,1.23,1.23,0,0,1-1.26-1.12V58.83a1.45,1.45,0,0,0-1.4-1.62c-.75,0-1.46.43-1.46,1.71v3.44a1.2,1.2,0,0,1-1.26,1.12,1.24,1.24,0,0,1-1.27-1.12V56a1.23,1.23,0,0,1,1.27-1.12A1.19,1.19,0,0,1,237.81,56v.2a2.42,2.42,0,0,1,2.21-1.4,2.73,2.73,0,0,1,2.78,1.59,2.72,2.72,0,0,1,2.46-1.6c2,0,3.29,1.28,3.3,3.83Z" fill="#186531"/></g></g></svg>